<svg xmlns="http://www.w3.org/2000/svg" viewBox="1.764 23.184 204.616 61.740" role="img" aria-labelledby="curio-wordmark-dark-title">
  <title id="curio-wordmark-dark-title">Curio wordmark</title>
  <path id="curio-wordmark-dark-c" data-letter="c" fill="#0D474E" d="M24.360000000000003 84.924Q17.976000000000003 84.924 12.852000000000002 82.152Q7.728000000000001 79.38 4.746 74.508Q1.764 69.636 1.764 63.587999999999994Q1.764 57.456 4.746 52.626000000000005Q7.728000000000001 47.796 12.894000000000002 44.982Q18.060000000000002 42.168 24.528000000000002 42.168Q29.316000000000003 42.168 33.264 43.806Q37.212 45.443999999999996 40.404 48.635999999999996L31.92 57.20399999999999Q30.576 55.69199999999999 28.728 54.93599999999999Q26.880000000000003 54.18 24.528000000000002 54.18Q21.84 54.18 19.782 55.355999999999995Q17.724 56.532 16.506 58.632Q15.288 60.732 15.288 63.504Q15.288 66.276 16.506 68.376Q17.724 70.476 19.824 71.694Q21.924000000000003 72.912 24.528000000000002 72.912Q27.048000000000002 72.912 28.896 72.072Q30.744000000000003 71.232 32.172000000000004 69.636L40.656000000000006 78.12Q37.38 81.48 33.348 83.202Q29.316000000000003 84.924 24.360000000000003 84.924Z"/>
  <path id="curio-wordmark-dark-u" data-letter="u" fill="#0D474E" d="M64.512 84.924Q58.88400000000001 84.924 54.516000000000005 82.614Q50.148 80.304 47.67 76.188Q45.19200000000001 72.072 45.19200000000001 66.78V43.092H58.464000000000006V66.696Q58.464000000000006 68.712 59.17800000000001 70.14Q59.89200000000001 71.568 61.278000000000006 72.366Q62.664 73.164 64.512 73.164Q67.284 73.164 68.88 71.44200000000001Q70.476 69.72 70.476 66.696V43.092H83.83200000000001V66.78Q83.83200000000001 72.156 81.35400000000001 76.23Q78.876 80.304 74.55000000000001 82.614Q70.224 84.924 64.512 84.924Z"/>
  <path id="curio-wordmark-dark-r" data-letter="r" fill="#0D474E" d="M91.72800000000001 84.0V43.092H105.084V84.0ZM105.084 61.656 99.37200000000001 57.12Q101.13600000000001 49.98 105.0 46.116Q108.864 42.251999999999995 115.50000000000001 42.251999999999995Q118.44000000000001 42.251999999999995 120.66600000000001 43.134Q122.89200000000001 44.016 124.48800000000001 45.78L116.67600000000002 55.86Q115.83600000000001 54.936 114.61800000000001 54.474000000000004Q113.4 54.012 111.80400000000002 54.012Q108.69600000000001 54.012 106.89000000000001 55.902Q105.084 57.792 105.084 61.656Z"/>
  <path id="curio-wordmark-dark-i" data-letter="i" fill="#0D474E" d="M127.68 84.0V43.092H140.952V84.0ZM134.316 37.715999999999994Q131.292 37.715999999999994 129.276 35.616Q127.26 33.516 127.26 30.491999999999997Q127.26 27.383999999999993 129.276 25.283999999999995Q131.292 23.183999999999997 134.316 23.183999999999997Q137.508 23.183999999999997 139.48200000000003 25.283999999999995Q141.45600000000002 27.383999999999993 141.45600000000002 30.491999999999997Q141.45600000000002 33.516 139.48200000000003 35.616Q137.508 37.715999999999994 134.316 37.715999999999994Z"/>
  <path id="curio-wordmark-dark-o" data-letter="o" fill="#0D474E" d="M169.68 84.924Q163.296 84.924 158.172 82.11Q153.048 79.29599999999999 150.108 74.42399999999999Q147.168 69.55199999999999 147.168 63.504Q147.168 57.372 150.108 52.584Q153.048 47.796 158.13 44.982Q163.212 42.168 169.596 42.168Q176.064 42.168 181.14600000000002 44.982Q186.228 47.796 189.168 52.584Q192.108 57.372 192.108 63.504Q192.108 69.55199999999999 189.168 74.42399999999999Q186.228 79.29599999999999 181.188 82.11Q176.148 84.924 169.68 84.924ZM169.596 72.912Q172.284 72.912 174.34199999999998 71.736Q176.4 70.56 177.49200000000002 68.418Q178.584 66.276 178.584 63.504Q178.584 60.732 177.45 58.632Q176.316 56.532 174.3 55.355999999999995Q172.284 54.18 169.596 54.18Q166.992 54.18 164.976 55.397999999999996Q162.96 56.616 161.82600000000002 58.716Q160.692 60.816 160.692 63.587999999999994Q160.692 66.276 161.82600000000002 68.418Q162.96 70.56 164.976 71.736Q166.992 72.912 169.596 72.912Z"/>
  <circle id="curio-wordmark-dark-dot" data-letter="dot" fill="#47B0A1" cx="201.260" cy="79.360" r="5.120"/>
</svg>
